<?xml version="1.0" encoding="UTF-8"?>
<svg width="115px" height="81px" viewBox="0 0 115 81" version="1.1" xmlns="http://www.w3.org/2000/svg" xmlns:xlink="http://www.w3.org/1999/xlink">
    <!-- Generator: Sketch 53.2 (72643) - https://sketchapp.com -->
    <title>euro</title>
    <desc>Created with Sketch.</desc>
    <defs>
        <linearGradient x1="50.7795455%" y1="75.8479422%" x2="48.9613636%" y2="25.2186854%" id="linearGradient-1">
            <stop stop-color="#B51421" offset="0%"></stop>
            <stop stop-color="#EC5B66" offset="100%"></stop>
        </linearGradient>
        <linearGradient x1="50.5612155%" y1="102.101667%" x2="49.2522581%" y2="0.0483333333%" id="linearGradient-2">
            <stop stop-color="#B51421" offset="0%"></stop>
            <stop stop-color="#EC5B66" offset="100%"></stop>
        </linearGradient>
    </defs>
    <g id="Page-1" stroke="none" stroke-width="1" fill="none" fill-rule="evenodd">
        <g id="Landing/Photo/short-text" transform="translate(-811.000000, -1077.000000)" fill-rule="nonzero">
            <g id="What-We-Do" transform="translate(191.000000, 1077.000000)">
                <g id="Block-2" transform="translate(526.000000, 0.000000)">
                    <g id="Group-4">
                        <g id="Item2">
                            <g id="euro" transform="translate(94.000000, 0.000000)">
                                <path d="M114.839705,44.4334947 C114.427519,41.4343492 111.35902,39.0350328 105.61131,37.2816861 C100.962764,35.8743948 95.0776583,35.0207918 88.6658702,34.8823697 L88.6658702,10.2663059 C88.6658702,9.75875819 88.5055755,9.27428083 88.1849861,8.88208488 C87.429311,6.20592424 84.3608124,4.03731131 79.048188,2.42238678 C73.8958582,0.853602962 67.1634807,0 60.0876145,0 C53.0346476,0 46.3709677,0.853602962 41.3331342,2.42238678 C37.1883712,3.7143264 32.2192354,6.11364284 32.2192354,10.2432355 C32.2192354,10.4970094 32.2421346,10.7507833 32.2879331,11.0045571 L32.5398248,21.5246369 C17.6782159,18.6408431 3.32039028,28.4918827 0.48088411,43.4876104 C0.160294703,45.1717459 0,46.9020222 0,48.6322985 C0,63.8587297 12.2968937,76.2475078 27.4103943,76.2475078 C33.7076862,76.2475078 39.7988849,74.0558246 44.699323,70.0646539 C49.0043807,71.0797494 54.0422143,71.6334378 59.377738,71.6795785 C60.5455994,78.0700655 74.2851454,81 87.1087216,81 C94.1616886,81 100.802469,80.1233267 105.886101,78.5314725 C110.053763,77.2395329 115,74.8171461 115,70.6875534 L115,45.3332384 C115,45.0333238 114.954202,44.7103389 114.839705,44.4334947 Z M42.7070888,6.8288237 C47.332736,5.39846198 53.5155317,4.59099972 60.1105137,4.59099972 C66.6596973,4.59099972 73.0714855,5.39846198 77.7429311,6.8288237 C82.7120669,8.35146682 83.7883313,9.92025064 83.7883313,10.2432355 C83.7883313,10.5662205 82.7120669,12.1580746 77.7200319,13.6576474 C73.0714855,15.0649388 66.6596973,15.8954714 60.1105137,15.8954714 C53.7903226,15.8954714 47.7907208,15.1572202 43.2337714,13.8191398 C38.3104341,12.3887781 36.9364795,10.796924 36.8219833,10.2893762 C36.8219833,10.2432355 36.8219833,10.2201652 36.799084,10.2201652 C36.8219833,9.89718029 37.8753485,8.32839647 42.7070888,6.8288237 Z M84.0860215,16.0108231 L84.0860215,21.9168328 C83.8799283,22.2398177 83.7654321,22.6320137 83.7883313,23.0242096 C83.7883313,23.3241242 82.7120669,24.9159784 77.7200319,26.4386215 C73.0714855,27.8459128 66.6367981,28.6764455 60.0876145,28.6764455 C54.4315014,28.6764455 48.8898845,28.0766163 44.4932298,26.9461692 C44.4245321,26.9230988 44.3787336,26.9230988 44.3100358,26.9000285 C42.1346077,25.1697522 39.7301872,23.8086015 37.1425727,22.8165765 L36.982278,16.3107377 C38.5623258,17.1181999 40.2110713,17.7641698 41.9285145,18.2255768 C46.8976503,19.6790088 53.3323377,20.4634007 60.0876145,20.4634007 C67.1634807,20.4634007 73.8958582,19.6097978 79.0252887,18.041014 C80.7885305,17.5565366 82.4830745,16.8644261 84.0860215,16.0108231 Z M42.7757865,65.6351467 C33.4557945,74.1942467 19.006372,73.5021361 10.5336519,64.1125036 C2.0609319,54.722871 2.72500996,40.1654799 12.045002,31.6294503 C16.2584628,27.7767018 21.7313819,25.6311592 27.4103943,25.6311592 C29.7003186,25.6311592 31.9902429,25.9772145 34.1885703,26.6462546 C42.1117085,29.1609228 48.088411,35.7821134 49.8058542,43.9720877 C50.1035444,45.4947308 50.2638391,47.0635147 50.2638391,48.6092281 C50.2638391,55.1150669 47.5388292,61.2979208 42.7757865,65.6351467 Z M48.5921943,66.1426944 C50.4470331,63.8587297 51.9354839,61.2979208 52.9888491,58.5525491 C54.9352847,58.7140416 56.9962166,58.8293933 59.102947,58.8524637 L59.102947,59.26773 L59.2174432,67.0885788 C55.6680605,67.0424381 52.1186778,66.7194531 48.5921943,66.1426944 Z M54.6833931,45.8869268 C56.0344484,45.9792082 57.4313023,46.0253489 58.8510554,46.0484193 C58.8510554,46.09456 58.8739546,46.163771 58.8739546,46.2099117 L59.0113501,54.2153233 C57.3855038,54.1922529 55.805456,54.1230419 54.2712067,54.0076901 C54.6146953,52.2312731 54.7978893,50.4087155 54.7978893,48.6092281 C54.8207885,47.7094845 54.77499,46.8097408 54.6833931,45.8869268 Z M60.3166069,41.4574195 C60.2479092,41.4574195 60.1792115,41.4574195 60.1105137,41.4574195 C57.9121864,41.4574195 55.7825568,41.3651381 53.8132218,41.226716 C52.9430506,38.1352891 51.569096,35.228425 49.7142573,32.6445457 C53.1491438,33.0828824 56.6069295,33.3135859 60.0876145,33.3135859 C67.1634807,33.3135859 73.8958582,32.4599829 79.048188,30.8911991 C80.8114297,30.3375107 82.4830745,29.6684705 84.0860215,28.8148676 L84.0860215,34.9285104 C74.2393469,35.2053546 64.0720828,37.2816861 60.3166069,41.4574195 Z M63.3851055,45.0102535 C63.614098,44.3642837 65.2857427,42.8647109 69.9800876,41.5266306 C74.4454401,40.2577613 80.2618479,39.5656508 86.3759458,39.5656508 L86.673636,39.5656508 C93.2228196,39.5656508 99.6346077,40.3269724 104.306053,41.7573341 C109.137794,43.2338365 110.282756,44.7103389 110.351454,45.1025349 L110.351454,45.1256052 C110.328554,45.4716605 109.183592,47.0635147 104.09996,48.5861578 C99.4056153,49.9934492 93.2228196,50.7547707 86.673636,50.7547707 C80.4908403,50.7547707 74.5828355,50.0395899 70.0487853,48.7707206 C65.6750299,47.5249217 63.9117881,46.1176303 63.4767025,45.4024494 C63.4538033,45.2640273 63.430904,45.1256052 63.3851055,45.0102535 Z M110.420151,70.6875534 C110.420151,71.0105383 109.389685,72.6023925 104.535046,74.1250356 C99.8864994,75.5784677 93.7037037,76.3859299 87.1087216,76.3859299 C80.4908403,76.3859299 74.3080446,75.601538 69.7281959,74.1942467 C64.8735564,72.6946739 63.8888889,71.1489604 63.8888889,70.8029052 C63.8888889,70.7798348 63.8888889,70.7798348 63.8888889,70.7567645 L63.7743927,64.0894332 C69.2244126,66.8809456 78.3154122,68.1498149 86.6507368,68.1498149 C93.7266029,68.1498149 100.413182,67.2962119 105.542613,65.7274281 C107.237157,65.2198804 108.863003,64.5277699 110.420151,63.6972373 L110.420151,70.6875534 Z M110.214058,57.9065793 C110.214058,58.2295642 109.160693,59.798348 104.214456,61.3209912 C99.5201115,62.7513529 93.2915173,63.5357448 86.6507368,63.5357448 C74.0790522,63.5357448 65.5605337,60.6980917 63.6827957,58.4602677 L63.6369972,56.4762176 L63.5454002,51.1931074 C65.217045,52.0467103 66.9573875,52.7157505 68.7664277,53.2002279 C73.689765,54.5844489 80.0328554,55.3688408 86.6278375,55.3688408 C93.5892075,55.3688408 100.229988,54.5383082 105.336519,53.0156651 C107.099761,52.5081173 108.794305,51.8390772 110.397252,50.9854742 L110.397252,56.9145543 L110.420151,56.9145543 C110.420151,57.2144688 110.214058,57.5605241 110.214058,57.9065793 Z" id="Shape" fill="url(#linearGradient-1)"></path>
                                <path d="M37.8556832,60.9030033 C37.4001528,59.6943558 36.1018912,59.1132752 34.9175122,59.5548964 C34.9175122,59.5316532 34.9175122,59.5316532 34.9175122,59.5316532 C30.61275,61.2051652 25.7613514,60.135977 22.5270857,56.8121963 C21.8665666,56.2078726 21.3199301,55.4873327 20.9099528,54.6970632 L32.6170837,54.6970632 C33.8697923,54.6970632 34.8947357,53.6511182 34.8947357,52.3727411 C34.8947357,51.0943639 33.8697923,50.0484189 32.6170837,50.0484189 L19.2472669,50.0484189 C19.1106078,49.211663 19.0878312,48.3516638 19.1789373,47.4916646 L33.8014628,47.4916646 C35.0541713,47.4916646 36.0791147,46.4457197 36.0791147,45.1673425 C36.0791147,43.8889653 35.0541713,42.8430204 33.8014628,42.8430204 L20.522752,42.8430204 C21.0693884,41.8435618 21.7299075,40.9370762 22.5043091,40.1003202 C25.7613514,36.7997828 30.61275,35.7305946 34.8947357,37.4273498 C36.0791147,37.8922142 37.3773763,37.2878905 37.8329067,36.1024862 C38.2884371,34.8938387 37.6962476,33.5689751 36.5346451,33.1041106 C30.567197,30.7565453 23.8025707,32.2208682 19.2700434,36.8462693 C17.584581,38.5430244 16.3090959,40.5884279 15.5119177,42.8662636 L12.2776519,42.8662636 C11.0249434,42.8662636 10,43.9122085 10,45.1905857 C10,46.4689629 11.0249434,47.5149078 12.2776519,47.5149078 L14.5553039,47.5149078 C14.5097508,48.374907 14.5097508,49.211663 14.6008569,50.0716622 L12.2776519,50.0716622 C11.0249434,50.0716622 10,51.1176071 10,52.3959843 C10,53.6743615 11.0249434,54.7203064 12.2776519,54.7203064 L15.7624594,54.7203064 C16.5368611,56.7424667 17.7440166,58.6019244 19.2700434,60.135977 C23.7797942,64.761378 30.5444205,66.2489442 36.5346451,63.9013788 C37.7190241,63.4365144 38.2884371,62.1116508 37.8556832,60.9030033 Z" id="Path" fill="url(#linearGradient-2)"></path>
                            </g>
                        </g>
                    </g>
                </g>
            </g>
        </g>
    </g>
</svg>