<?xml version="1.0" encoding="UTF-8"?>
<svg width="102px" height="105px" viewBox="0 0 102 105" version="1.1" xmlns="http://www.w3.org/2000/svg" xmlns:xlink="http://www.w3.org/1999/xlink">
    <!-- Generator: Sketch 53.2 (72643) - https://sketchapp.com -->
    <title>creativity-2</title>
    <desc>Created with Sketch.</desc>
    <defs>
        <linearGradient x1="49.9999902%" y1="-27.7053328%" x2="49.9999902%" y2="98.8758213%" id="linearGradient-1">
            <stop stop-color="#EC5B66" offset="0%"></stop>
            <stop stop-color="#B51421" offset="100%"></stop>
        </linearGradient>
        <linearGradient x1="49.9999902%" y1="-27.7053328%" x2="49.9999902%" y2="98.8758213%" id="linearGradient-2">
            <stop stop-color="#EC5B66" offset="0%"></stop>
            <stop stop-color="#B51421" offset="100%"></stop>
        </linearGradient>
        <linearGradient x1="49.9999902%" y1="-27.7053328%" x2="49.9999902%" y2="98.8758213%" id="linearGradient-3">
            <stop stop-color="#EC5B66" offset="0%"></stop>
            <stop stop-color="#B51421" offset="100%"></stop>
        </linearGradient>
        <linearGradient x1="49.9999902%" y1="-27.7053328%" x2="49.9999902%" y2="98.8758213%" id="linearGradient-4">
            <stop stop-color="#EC5B66" offset="0%"></stop>
            <stop stop-color="#B51421" offset="100%"></stop>
        </linearGradient>
    </defs>
    <g id="Page-1" stroke="none" stroke-width="1" fill="none" fill-rule="evenodd">
        <g id="Landing/Photo/short-text" transform="translate(-786.000000, -1694.000000)" fill-rule="nonzero">
            <g id="Services" transform="translate(177.000000, 1587.000000)">
                <g id="Service2" transform="translate(450.000000, 83.000000)">
                    <g id="Group-8">
                        <g id="Description-2">
                            <g id="Description">
                                <g id="Service-2">
                                    <g id="creativity-2" transform="translate(159.000000, 24.000000)">
                                        <path d="M63.9597367,25.0560235 C49.6263823,17.9014904 32.2224688,23.7366298 25.0645346,38.0974198 C18.0456148,52.2013444 23.4750484,69.3473263 37.3520157,76.734178 L37.3520157,95.5169096 C37.3493927,98.0390994 38.3495976,100.458719 40.1314308,102.238366 C41.9132643,104.018013 44.3289688,105.012161 46.844344,104.999888 L55.1668523,104.999888 C57.6813532,105.012161 60.097932,104.018013 61.8797652,102.238366 C63.6615987,100.457842 64.6618035,98.0390994 64.6583063,95.5169096 L64.6583063,76.7280413 C69.9775773,73.9095356 74.2765345,69.4823341 76.9466617,64.0758881 C84.0888584,49.7229881 78.2738565,32.2184466 63.9597367,25.0560235 L63.9597367,25.0560235 Z M51.005161,61.7500731 C49.0572097,61.7500731 47.4782149,60.1668005 47.4782149,58.2135718 C47.4782149,56.260343 49.0572097,54.6761938 51.005161,54.6761938 C52.9531123,54.6761938 54.5329811,56.260343 54.5329811,58.2135718 C54.5303584,60.1659239 52.9522379,61.747443 51.005161,61.7500731 Z M61.0771535,85.4746136 L61.0771535,91.309753 L40.9331686,91.309753 L40.9331686,85.4746136 L61.0771535,85.4746136 Z M55.1668523,101.409033 L46.844344,101.409033 C45.2784638,101.422183 43.7729109,100.806758 42.6616693,99.7003959 C41.551302,98.5931571 40.9287969,97.087032 40.9331686,95.5169096 L40.9331457,94.900608 L61.0771763,94.900608 L61.0771535,95.5169096 C61.0815249,97.087032 60.4590198,98.5931571 59.3486527,99.7003959 C58.2382854,100.806758 56.731858,101.422183 55.1668523,101.409033 L55.1668523,101.409033 Z M73.7606945,62.4724521 C71.2890347,67.4151377 67.289964,71.4250428 62.360633,73.9033991 C62.3186664,73.9244393 62.2592137,73.9489859 62.2198698,73.9726561 C61.5379122,74.2435482 61.0867706,74.9019301 61.0780277,75.6374593 L61.0780277,81.8837586 L52.7957375,81.8837586 L52.7957375,65.1112395 C56.2571106,64.2082658 58.5101943,60.8663861 58.05643,57.3088446 C57.6017914,53.7513033 54.5819422,51.0862156 51.005161,51.0862156 C47.4283796,51.0862156 44.4085306,53.7513033 43.9547663,57.3088446 C43.5001278,60.8663861 45.7532114,64.2082658 49.2145846,65.1112395 L49.2145846,81.8837586 L40.9331686,81.8837586 L40.9331686,75.6374593 C40.9252999,74.9019301 40.4741583,74.2435482 39.7922007,73.9726561 C39.7519826,73.9489859 39.7021473,73.9244393 39.6610549,73.9033991 C27.0902992,67.6194028 21.9826098,52.3056684 28.2522503,39.7026089 C34.5218906,27.0995495 49.7942488,21.9797757 62.3623815,28.2681555 C74.9305145,34.5565351 80.0347064,49.8711459 73.7606945,62.4724521 L73.7606945,62.4724521 Z" id="Shape" fill="url(#linearGradient-1)"></path>
                                        <path d="M51.5,14 C52.328369,14 53,13.2105037 53,12.2367628 L53,1.7632372 C53,0.789496289 52.328369,0 51.5,0 C50.6716308,0 50,0.789496289 50,1.7632372 L50,12.2367628 C50,13.2105037 50.6716308,14 51.5,14 Z" id="Path" fill="url(#linearGradient-2)"></path>
                                        <path d="M100.220898,49 L89.7791015,49 C88.7965996,49 88,49.6716308 88,50.5 C88,51.3283692 88.7965996,52 89.7791015,52 L100.220898,52 C101.2034,52 102,51.3283692 102,50.5 C102,49.6716308 101.2034,49 100.220898,49 Z" id="Path" fill="url(#linearGradient-3)"></path>
                                        <path d="M12.2208985,49 L1.77910149,49 C0.796599807,49 0,49.6716308 0,50.5 C0,51.3283692 0.796599807,52 1.77910149,52 L12.2208985,52 C13.2034002,52 14,51.3283692 14,50.5 C14,49.6716308 13.2034002,49 12.2208985,49 Z" id="Path" fill="url(#linearGradient-3)"></path>
                                        <path d="M83.9214965,15.528169 L76.5281584,22.9225352 C75.8239472,23.6267606 75.8239472,24.7684859 76.5281584,25.471831 C77.2323697,26.1760563 78.3740724,26.1760563 79.0774032,25.471831 L86.4725019,18.078345 C87.1758327,17.3741197 87.1758327,16.2323944 86.4725019,15.528169 C85.7682906,14.8239437 84.6265879,14.8239437 83.9223767,15.528169 L83.9214965,15.528169 Z" id="Path" fill="url(#linearGradient-4)"></path>
                                        <path d="M24.1966041,25.9999969 C24.9263119,25.9999969 25.5829606,25.5607321 25.8628726,24.8873101 C26.1419043,24.2138881 25.9869845,23.4383522 25.4720519,22.9225022 L18.0781512,15.5289444 C17.3739702,14.823832 16.2323168,14.823832 15.5281358,15.5280642 C14.8239547,16.2322964 14.8239547,17.374913 15.5281358,18.0791452 L22.9211563,25.472703 C23.2591632,25.8116147 23.7186412,26.0008772 24.1966041,25.9999969 Z" id="Path" fill="url(#linearGradient-4)"></path>
                                    </g>
                                </g>
                            </g>
                        </g>
                    </g>
                </g>
            </g>
        </g>
    </g>
</svg>