<?xml version="1.0" encoding="UTF-8"?>
<svg width="58px" height="105px" viewBox="0 0 58 105" version="1.1" xmlns="http://www.w3.org/2000/svg" xmlns:xlink="http://www.w3.org/1999/xlink">
    <!-- Generator: Sketch 53.2 (72643) - https://sketchapp.com -->
    <title>flask</title>
    <desc>Created with Sketch.</desc>
    <defs>
        <linearGradient x1="49.9994218%" y1="-29.2276042%" x2="49.9994218%" y2="98.1385417%" id="linearGradient-1">
            <stop stop-color="#EC5B66" offset="0%"></stop>
            <stop stop-color="#B51421" offset="100%"></stop>
        </linearGradient>
        <linearGradient x1="49.9994218%" y1="-29.2276042%" x2="49.9994218%" y2="98.1385417%" id="linearGradient-2">
            <stop stop-color="#EC5B66" offset="0%"></stop>
            <stop stop-color="#B51421" offset="100%"></stop>
        </linearGradient>
        <linearGradient x1="49.9994218%" y1="-29.2276042%" x2="49.9994218%" y2="98.1385417%" id="linearGradient-3">
            <stop stop-color="#EC5B66" offset="0%"></stop>
            <stop stop-color="#B51421" offset="100%"></stop>
        </linearGradient>
        <linearGradient x1="49.9994218%" y1="-29.2276042%" x2="49.9994218%" y2="98.1385417%" id="linearGradient-4">
            <stop stop-color="#EC5B66" offset="0%"></stop>
            <stop stop-color="#B51421" offset="100%"></stop>
        </linearGradient>
        <linearGradient x1="49.9994218%" y1="-29.2276042%" x2="49.9994218%" y2="98.1385417%" id="linearGradient-5">
            <stop stop-color="#EC5B66" offset="0%"></stop>
            <stop stop-color="#B51421" offset="100%"></stop>
        </linearGradient>
        <linearGradient x1="49.9994218%" y1="-29.2276042%" x2="49.9994218%" y2="98.1385417%" id="linearGradient-6">
            <stop stop-color="#EC5B66" offset="0%"></stop>
            <stop stop-color="#B51421" offset="100%"></stop>
        </linearGradient>
    </defs>
    <g id="Page-1" stroke="none" stroke-width="1" fill="none" fill-rule="evenodd">
        <g id="Landing/Photo/short-text" transform="translate(-1258.000000, -1695.000000)" fill-rule="nonzero">
            <g id="Services" transform="translate(177.000000, 1587.000000)">
                <g id="Service3" transform="translate(900.000000, 83.000000)">
                    <g id="Group-8">
                        <g id="Service3">
                            <g id="flask" transform="translate(181.000000, 25.000000)">
                                <path d="M39.1855047,48.893097 L39.1855047,35.1796875 L40.3383336,35.1796875 C41.2703204,35.1796875 41.9279024,34.3903197 41.9279024,33.4584046 L41.9279024,25.6833802 C41.9279024,24.7514648 41.2703204,24 40.3383336,24 L18.4708434,24 C18.0283352,24.0008239 17.6039557,24.1796264 17.2941175,24.4960326 C16.9842793,24.813263 16.8153516,25.2409057 16.8244158,25.6833802 L16.8244158,33.4584046 C16.8137034,33.9049987 16.9818071,34.3375853 17.2908213,34.6605834 C17.5990113,34.9835814 18.0242148,35.1706237 18.4708434,35.1796875 L18.7229989,35.1796875 L18.7229989,48.9013366 C13.5093119,50.9118347 8.97710434,54.3659362 5.65623203,58.8590697 C1.9736073,63.8243408 -0.00985165828,69.8442994 3.67949313e-05,76.0257568 C3.67949313e-05,92.0026244 13.0272498,105 29.0383037,105 C45.0073315,105 57.999935,92.0026244 57.999935,76.0257568 C58.0254802,63.9355774 50.5176721,53.1085511 39.1855047,48.893097 Z M20.1996745,27.375 L38.5526437,27.375 L38.5526437,31.8046875 L20.1996745,31.8046875 L20.1996745,27.375 Z M29.0383037,101.625 C14.8879272,101.625 3.37611948,90.1412659 3.37611948,76.0257568 C3.3678792,70.565277 5.11978339,65.247345 8.37390848,60.8613281 C11.5258531,56.5906677 15.9130302,53.3903503 20.9429567,51.6921387 C21.6326763,51.4630736 22.0982576,50.8170775 22.0982576,50.090332 L22.0982576,35.1796875 L35.810246,35.1796875 L35.810246,50.090332 C35.810246,50.8211976 36.2799476,51.4688415 36.9746115,51.6954346 C47.5165266,55.1141052 54.6477494,64.9441224 54.6238523,76.0257568 C54.6238523,90.1412659 43.1458303,101.625 29.0383037,101.625 Z" id="Shape" fill="url(#linearGradient-1)"></path>
                                <path d="M27.9026227,10.8024088 C27.1911273,11.3793946 26,12.34375 26,14.1666667 C26,15.9895833 27.1911273,16.9539387 27.9026227,17.5301106 C28.5429689,18.0493165 28.5714286,18.1306967 28.5714286,18.3333333 C28.5714286,19.2537435 29.3390069,20 30.2857143,20 C31.2324219,20 32,19.2537435 32,18.3333333 C32,16.5112304 30.8088727,15.5460613 30.0973773,14.9698894 C29.4570314,14.4506835 29.4285714,14.3693033 29.4285714,14.1666667 C29.4285714,13.96403 29.4570314,13.8826498 30.0973773,13.363444 C30.8088727,12.7864583 32,11.8212892 32,10 C32,8.17871083 30.8088727,7.21272792 30.0973773,6.63655604 C29.4570314,6.11653646 29.4285714,6.03515625 29.4285714,5.83333333 C29.4285714,5.63151042 29.4570314,5.54931646 30.0973773,5.03092458 C30.8088727,4.45393875 32,3.48876958 32,1.66666667 C32,0.746256458 31.2324219,0 30.2857143,0 C29.3390069,0 28.5714286,0.746256458 28.5714286,1.66666667 C28.5714286,1.86930333 28.5429689,1.95068354 27.9026227,2.46907542 C27.1911273,3.04606125 26,4.01041667 26,5.83333333 C26,7.65625 27.1911273,8.62060542 27.9026227,9.19677729 C28.5429689,9.71516917 28.5714286,9.79654958 28.5714286,10 C28.5714286,10.2034504 28.5429689,10.2832031 27.9026227,10.8024088 Z" id="Path" fill="url(#linearGradient-2)"></path>
                                <path d="M38.9026227,10.8024088 C38.1911273,11.3793946 37,12.34375 37,14.1666667 C37,15.9895833 38.1911273,16.9539387 38.9026227,17.5301106 C39.5429689,18.0493165 39.5714286,18.1306967 39.5714286,18.3333333 C39.5714286,19.2537435 40.3390069,20 41.2857143,20 C42.2324219,20 43,19.2537435 43,18.3333333 C43,16.5112304 41.8088727,15.5460613 41.0973773,14.9698894 C40.4570314,14.4506835 40.4285714,14.3693033 40.4285714,14.1666667 C40.4285714,13.96403 40.4570314,13.8826498 41.0973773,13.363444 C41.8088727,12.7864583 43,11.8212892 43,10 C43,8.17871083 41.8088727,7.21272792 41.0973773,6.63655604 C40.4570314,6.11653646 40.4285714,6.03515625 40.4285714,5.83333333 C40.4285714,5.63151042 40.4570314,5.54931646 41.0973773,5.03092458 C41.8088727,4.45393875 43,3.48876958 43,1.66666667 C43,0.746256458 42.2324219,0 41.2857143,0 C40.3390069,0 39.5714286,0.746256458 39.5714286,1.66666667 C39.5714286,1.86930333 39.5429689,1.95068354 38.9026227,2.46907542 C38.1911273,3.04606125 37,4.01041667 37,5.83333333 C37,7.65625 38.1911273,8.62060542 38.9026227,9.19677729 C39.5429689,9.71516917 39.5714286,9.79654958 39.5714286,10 C39.5714286,10.2034504 39.5429689,10.2832031 38.9026227,10.8024088 Z" id="Path" fill="url(#linearGradient-2)"></path>
                                <path d="M17.9026227,10.8024088 C17.1911273,11.3793946 16,12.34375 16,14.1666667 C16,15.9895833 17.1911273,16.9539387 17.9026227,17.5301106 C18.5429689,18.0493165 18.5714286,18.1306967 18.5714286,18.3333333 C18.5714286,19.2537435 19.3390069,20 20.2857143,20 C21.2324219,20 22,19.2537435 22,18.3333333 C22,16.5112304 20.8088727,15.5460613 20.0973773,14.9698894 C19.4570314,14.4506835 19.4285714,14.3693033 19.4285714,14.1666667 C19.4285714,13.96403 19.4570314,13.8826498 20.0973773,13.363444 C20.8088727,12.7864583 22,11.8212892 22,10 C22,8.17871083 20.8088727,7.21272792 20.0973773,6.63655604 C19.4570314,6.11653646 19.4285714,6.03515625 19.4285714,5.83333333 C19.4285714,5.63151042 19.4570314,5.54931646 20.0973773,5.03092458 C20.8088727,4.45393875 22,3.48876958 22,1.66666667 C22,0.746256458 21.2324219,0 20.2857143,0 C19.3390069,0 18.5714286,0.746256458 18.5714286,1.66666667 C18.5714286,1.86930333 18.5429689,1.95068354 17.9026227,2.46907542 C17.1911273,3.04606125 16,4.01041667 16,5.83333333 C16,7.65625 17.1911273,8.62060542 17.9026227,9.19677729 C18.5429689,9.71516917 18.5714286,9.79654958 18.5714286,10 C18.5714286,10.2034504 18.5429689,10.2832031 17.9026227,10.8024088 Z" id="Path" fill="url(#linearGradient-2)"></path>
                                <path d="M29.7517371,66.0226778 C26.3985694,65.8189564 23.1078781,66.99465 20.6499299,69.2732209 C18.3366636,71.3955238 17.0139749,74.3801655 17,77.5112574 C17,81.6405026 19.4176675,85.4555751 22.9952564,87.5075163 L22.9952564,92.3346506 C22.9952564,94.3955915 24.7593893,96 26.8293269,96 L31.1845812,96 C33.2545188,96 34.9907017,94.3955915 34.9907017,92.3346506 L34.9907017,87.4821533 C38.5682907,85.4703018 41.0147302,81.6511389 40.9999332,77.4703495 C40.9785597,71.4184322 36.0215604,66.3900309 29.7517371,66.0226778 Z M31.1845812,92.6488234 L26.8293269,92.6488234 C26.6164145,92.6488234 26.362399,92.5473717 26.362399,92.3346506 L26.362399,90.1354409 L31.6235592,90.1354409 L31.6235592,92.3346506 C31.6235592,92.5473717 31.3983159,92.6488234 31.1845812,92.6488234 Z M32.6198914,84.8935003 C32.0058153,85.1594019 31.6128725,85.7672934 31.6235592,86.4340925 L31.6235592,86.7842643 L26.362399,86.7842643 L26.362399,86.472546 C26.3788401,85.8155648 25.9998722,85.2125821 25.3997712,84.9401352 C22.3425438,83.5934467 20.3868719,80.6767122 20.3868719,77.5112574 C20.3942703,75.3071389 21.322372,73.2061082 22.9500433,71.7113328 C24.5982663,70.1871038 26.7676729,69.3435826 29.0176409,69.3525824 C29.194383,69.3525824 29.3735912,69.3583094 29.5511553,69.3681273 C33.9762844,69.6274836 37.6031967,73.2674701 37.6188158,77.482622 C37.6048407,80.7290743 35.6343718,83.6507177 32.6198914,84.8935003 Z" id="Shape" fill="url(#linearGradient-3)"></path>
                                <path d="M29.5,64 C30.3283692,64 31,63.2835938 31,62.4 L31,57.6 C31,56.7164064 30.3283692,56 29.5,56 C28.671631,56 28,56.7164064 28,57.6 L28,62.4 C28,63.2835938 28.671631,64 29.5,64 Z" id="Path" fill="url(#linearGradient-4)"></path>
                                <path d="M42,76.5 C42,77.3283692 42.7858915,78 43.757102,78 L49.242898,78 C50.2132508,78 51,77.3283692 51,76.5 C51,75.6716308 50.2132508,75 49.242898,75 L43.757102,75 C42.7858915,75 42,75.6716308 42,76.5 Z" id="Path" fill="url(#linearGradient-5)"></path>
                                <path d="M15.2430655,75 L9.7569345,75 C8.78667423,75 8,75.6716308 8,76.5 C8,77.3283692 8.78667423,78 9.7569345,78 L15.2430655,78 C16.2133258,78 17,77.3283692 17,76.5 C17,75.6716308 16.2133258,75 15.2430655,75 Z" id="Path" fill="url(#linearGradient-5)"></path>
                                <path d="M39.6577993,68.9999969 C40.082728,69.000828 40.4914689,68.8329405 40.7990364,68.5320724 L44.4841802,64.9366175 C45.1478782,64.2891696 45.1745882,63.211198 44.5440748,62.529674 C43.9135615,61.8481499 42.8645946,61.8207228 42.2008964,62.4681705 L38.5157528,66.0636256 C38.0244542,66.5431858 37.8666237,67.2828886 38.1183432,67.9295055 C38.3700629,68.5761223 38.9795321,68.9999969 39.6577993,68.9999969 Z" id="Path" fill="url(#linearGradient-6)"></path>
                                <path d="M18.2006683,68.5318456 C18.8643198,69.179271 19.9140222,69.1518449 20.5444912,68.4703445 C21.17496,67.7888441 21.1474428,66.7109097 20.4837913,66.0634845 L16.7989068,62.4681542 C16.1352553,61.820729 15.0863621,61.8481552 14.4558931,62.5296556 C13.8254242,63.211156 13.852132,64.2890901 14.5157837,64.9365155 L18.2006683,68.5318456 Z" id="Path" fill="url(#linearGradient-6)"></path>
                            </g>
                        </g>
                    </g>
                </g>
            </g>
        </g>
    </g>
</svg>