<?xml version="1.0" encoding="UTF-8"?>
<svg width="105px" height="103px" viewBox="0 0 105 103" version="1.1" xmlns="http://www.w3.org/2000/svg" xmlns:xlink="http://www.w3.org/1999/xlink">
    <!-- Generator: Sketch 53.2 (72643) - https://sketchapp.com -->
    <title>Icin</title>
    <desc>Created with Sketch.</desc>
    <defs>
        <linearGradient x1="50.4244184%" y1="102.101667%" x2="49.4345213%" y2="0.0483333333%" id="linearGradient-1">
            <stop stop-color="#B51421" offset="0%"></stop>
            <stop stop-color="#EC5B66" offset="100%"></stop>
        </linearGradient>
        <linearGradient x1="50.6115455%" y1="102.101667%" x2="49.1852004%" y2="0.0483333333%" id="linearGradient-2">
            <stop stop-color="#B51421" offset="0%"></stop>
            <stop stop-color="#EC5B66" offset="100%"></stop>
        </linearGradient>
        <linearGradient x1="50.7795455%" y1="54.68915%" x2="48.9613636%" y2="45.50435%" id="linearGradient-3">
            <stop stop-color="#B51421" offset="0%"></stop>
            <stop stop-color="#EC5B66" offset="100%"></stop>
        </linearGradient>
        <linearGradient x1="50.7795455%" y1="51.6225433%" x2="48.9613636%" y2="48.4444118%" id="linearGradient-4">
            <stop stop-color="#B51421" offset="0%"></stop>
            <stop stop-color="#EC5B66" offset="100%"></stop>
        </linearGradient>
        <linearGradient x1="50.7795455%" y1="68.7566%" x2="48.9613636%" y2="32.0174%" id="linearGradient-5">
            <stop stop-color="#B51421" offset="0%"></stop>
            <stop stop-color="#EC5B66" offset="100%"></stop>
        </linearGradient>
        <linearGradient x1="50.7795455%" y1="51.0632993%" x2="48.9613636%" y2="48.9805782%" id="linearGradient-6">
            <stop stop-color="#B51421" offset="0%"></stop>
            <stop stop-color="#EC5B66" offset="100%"></stop>
        </linearGradient>
        <linearGradient x1="50.7795455%" y1="52.3924235%" x2="48.9613636%" y2="47.706301%" id="linearGradient-7">
            <stop stop-color="#B51421" offset="0%"></stop>
            <stop stop-color="#EC5B66" offset="100%"></stop>
        </linearGradient>
        <linearGradient x1="50.7795455%" y1="102.101667%" x2="48.9613636%" y2="0.0483333333%" id="linearGradient-8">
            <stop stop-color="#B51421" offset="0%"></stop>
            <stop stop-color="#EC5B66" offset="100%"></stop>
        </linearGradient>
        <linearGradient x1="50.7795455%" y1="59.5696939%" x2="48.9613636%" y2="40.8252041%" id="linearGradient-9">
            <stop stop-color="#B51421" offset="0%"></stop>
            <stop stop-color="#EC5B66" offset="100%"></stop>
        </linearGradient>
        <linearGradient x1="50.7795455%" y1="50.3247334%" x2="48.9613636%" y2="49.6886669%" id="linearGradient-10">
            <stop stop-color="#B51421" offset="0%"></stop>
            <stop stop-color="#EC5B66" offset="100%"></stop>
        </linearGradient>
        <linearGradient x1="50.5727273%" y1="102.101667%" x2="49.2369202%" y2="0.0483333333%" id="linearGradient-11">
            <stop stop-color="#B51421" offset="0%"></stop>
            <stop stop-color="#EC5B66" offset="100%"></stop>
        </linearGradient>
    </defs>
    <g id="Page-1" stroke="none" stroke-width="1" fill="none" fill-rule="evenodd">
        <g id="Landing/Photo/short-text" transform="translate(-335.000000, -1694.000000)" fill-rule="nonzero">
            <g id="Services" transform="translate(177.000000, 1587.000000)">
                <g id="Service1" transform="translate(0.000000, 83.000000)">
                    <g id="Group-8">
                        <g id="Service-1">
                            <g id="Icin" transform="translate(158.000000, 24.000000)">
                                <path d="M74.2727273,88.6486667 C73.3187809,88.6486667 72.5454545,89.4172445 72.5454545,90.3653333 L72.5454545,99.5666667 L3.45454545,99.5666667 L3.45454545,3.43333333 L55.2727273,3.43333333 L55.2727273,18.8833333 C55.2727273,19.8314222 56.0460536,20.6 57,20.6 L72.5454545,20.6 L72.5454545,50.4013333 C72.5454545,51.3494222 73.3187809,52.118 74.2727273,52.118 C75.2266737,52.118 76,51.3494222 76,50.4013333 L76,18.8833333 C75.9999022,18.4280822 75.817858,17.9915125 75.4939091,17.66965 L58.2211818,0.502983333 C57.8973307,0.181023573 57.4580638,9.72275461e-05 57,0 L1.72727273,0 C0.773326341,0 0,0.768577846 0,1.71666667 L0,101.283333 C0,102.231422 0.773326341,103 1.72727273,103 L74.2727273,103 C75.2266737,103 76,102.231422 76,101.283333 L76,90.3653333 C76,89.4172445 75.2266737,88.6486667 74.2727273,88.6486667 Z M58.7272727,17.1666667 L58.7272727,5.8607 L70.1030909,17.1666667 L58.7272727,17.1666667 Z" id="Shape" fill="url(#linearGradient-1)"></path>
                                <path d="M25.5,51.9999982 C25.7699054,51.9997159 26.0359666,51.9354267 26.2767222,51.8123164 L40.0544998,44.7916252 C40.6340839,44.4961083 40.9996595,43.8967603 40.9999998,43.2415122 L40.9999998,25.6897842 C41.000304,25.0311148 40.6315332,24.4288829 40.0476109,24.1344578 L26.2698333,17.1832783 C25.7851815,16.9389072 25.2148185,16.9389072 24.7301667,17.1832783 L10.9523891,24.1344578 C10.3684668,24.4288829 9.99969601,25.0311148 10.0000002,25.6897842 L10.0000002,43.0677327 C9.99994801,43.7170388 10.3586354,44.3122137 10.9300002,44.6108945 L24.7077778,51.8036274 C24.9521401,51.9330014 25.2240439,52.0003991 25.5,51.9999982 L25.5,51.9999982 Z M37.5555554,42.1710305 L27.2222222,47.4382867 L27.2222222,33.7097074 L37.5555554,28.4963228 L37.5555554,42.1710305 Z M25.5,20.6814594 L35.4268888,25.6897842 L25.5,30.6981089 L22.462,29.1653739 L26.2698333,27.2537995 L24.7301667,24.1431467 L18.6111112,27.2225192 L15.5731112,25.6897842 L25.5,20.6814594 Z M23.7777778,47.4122198 L13.4444446,42.0250558 L13.4444446,28.5015362 L16.888889,30.2393311 L16.888889,36.1165533 L20.3333334,36.1165533 L20.3333334,31.9771259 L23.7777778,33.7149208 L23.7777778,47.4122198 Z" id="Shape" fill="url(#linearGradient-2)"></path>
                                <path d="M63.3333333,28 L56.6666667,28 C55.7461921,28 55,28.6715729 55,29.5 C55,30.3284271 55.7461921,31 56.6666667,31 L63.3333333,31 C64.2538079,31 65,30.3284271 65,29.5 C65,28.6715729 64.2538079,28 63.3333333,28 Z" id="Path" fill="url(#linearGradient-3)"></path>
                                <path d="M63.3,35 L49.7,35 C48.7611159,35 48,35.6715729 48,36.5 C48,37.3284271 48.7611159,38 49.7,38 L63.3,38 C64.2388841,38 65,37.3284271 65,36.5 C65,35.6715729 64.2388841,35 63.3,35 Z" id="Path" fill="url(#linearGradient-4)"></path>
                                <path d="M63.3,41 L49.7,41 C48.7611159,41 48,41.6715729 48,42.5 C48,43.3284271 48.7611159,44 49.7,44 L63.3,44 C64.2388841,44 65,43.3284271 65,42.5 C65,41.6715729 64.2388841,41 63.3,41 Z" id="Path" fill="url(#linearGradient-4)"></path>
                                <path d="M49.6666667,31 L51.3333333,31 C52.2538079,31 53,30.3284271 53,29.5 C53,28.6715729 52.2538079,28 51.3333333,28 L49.6666667,28 C48.7461921,28 48,28.6715729 48,29.5 C48,30.3284271 48.7461921,31 49.6666667,31 Z" id="Path" fill="url(#linearGradient-5)"></path>
                                <path d="M64.25,88 L46.75,88 C45.7835017,88 45,88.6715729 45,89.5 C45,90.3284271 45.7835017,91 46.75,91 L64.25,91 C65.2164983,91 66,90.3284271 66,89.5 C66,88.6715729 65.2164983,88 64.25,88 Z" id="Path" fill="url(#linearGradient-6)"></path>
                                <path d="M64.25,93 L53.75,93 C52.7835017,93 52,93.6715729 52,94.5 C52,95.3284271 52.7835017,96 53.75,96 L64.25,96 C65.2164983,96 66,95.3284271 66,94.5 C66,93.6715729 65.2164983,93 64.25,93 Z" id="Path" fill="url(#linearGradient-7)"></path>
                                <path d="M86,51 C75.5065898,51 67,59.5065898 67,70 C67,80.4934102 75.5065898,89 86,89 C96.4934102,89 105,80.4934102 105,70 C104.987627,59.5117192 96.4882808,51.0123733 86,51 Z M86,85.5454545 C77.4144825,85.5454545 70.4545455,78.5855175 70.4545455,70 C70.4545455,61.4144825 77.4144825,54.4545455 86,54.4545455 C94.5855175,54.4545455 101.545455,61.4144825 101.545455,70 C101.535935,78.5815714 94.5815714,85.5359353 86,85.5454545 Z" id="Shape" fill="url(#linearGradient-8)"></path>
                                <path d="M15.25,60 L11.75,60 C10.7835017,60 10,60.6715729 10,61.5 C10,62.3284271 10.7835017,63 11.75,63 L15.25,63 C16.2164983,63 17,62.3284271 17,61.5 C17,60.6715729 16.2164983,60 15.25,60 Z" id="Path" fill="url(#linearGradient-9)"></path>
                                <path d="M57.2727273,60 L22.7272727,60 C21.7733263,60 21,60.6715729 21,61.5 C21,62.3284271 21.7733263,63 22.7272727,63 L57.2727273,63 C58.2266737,63 59,62.3284271 59,61.5 C59,60.6715729 58.2266737,60 57.2727273,60 Z" id="Path" fill="url(#linearGradient-10)"></path>
                                <path d="M15.25,67 L11.75,67 C10.7835017,67 10,67.6715729 10,68.5 C10,69.3284271 10.7835017,70 11.75,70 L15.25,70 C16.2164983,70 17,69.3284271 17,68.5 C17,67.6715729 16.2164983,67 15.25,67 Z" id="Path" fill="url(#linearGradient-9)"></path>
                                <path d="M57.2727273,67 L22.7272727,67 C21.7733263,67 21,67.6715729 21,68.5 C21,69.3284271 21.7733263,70 22.7272727,70 L57.2727273,70 C58.2266737,70 59,69.3284271 59,68.5 C59,67.6715729 58.2266737,67 57.2727273,67 Z" id="Path" fill="url(#linearGradient-10)"></path>
                                <path d="M15.25,74 L11.75,74 C10.7835017,74 10,74.6715729 10,75.5 C10,76.3284271 10.7835017,77 11.75,77 L15.25,77 C16.2164983,77 17,76.3284271 17,75.5 C17,74.6715729 16.2164983,74 15.25,74 Z" id="Path" fill="url(#linearGradient-9)"></path>
                                <path d="M22.7272727,77 L57.2727273,77 C58.2266737,77 59,76.3284271 59,75.5 C59,74.6715729 58.2266737,74 57.2727273,74 L22.7272727,74 C21.7733263,74 21,74.6715729 21,75.5 C21,76.3284271 21.7733263,77 22.7272727,77 Z" id="Path" fill="url(#linearGradient-10)"></path>
                                <path d="M92.9072249,77.3928203 C92.614384,76.6236809 91.7797872,76.2539024 91.0184007,76.5349341 C91.0184007,76.520143 91.0184007,76.520143 91.0184007,76.520143 C88.2510536,77.5851051 85.1322973,76.9047126 83.0531265,74.7895795 C82.6285071,74.4050098 82.2770979,73.9464845 82.0135411,73.4435857 L89.5395538,73.4435857 C90.3448665,73.4435857 91.0037587,72.7779843 91.0037587,71.9644716 C91.0037587,71.1509588 90.3448665,70.4853575 89.5395538,70.4853575 L80.9446716,70.4853575 C80.8568193,69.9528764 80.8421772,69.4056042 80.9007454,68.858332 L90.3009403,68.858332 C91.106253,68.858332 91.7651452,68.1927307 91.7651452,67.3792179 C91.7651452,66.5657052 91.106253,65.9001039 90.3009403,65.9001039 L81.7646263,65.9001039 C82.1160354,65.2640848 82.5406548,64.6872303 83.0384844,64.1547492 C85.1322973,62.0544073 88.2510536,61.3740148 91.0037587,62.4537681 C91.7651452,62.7495909 92.5997419,62.3650212 92.8925829,61.610673 C93.1854238,60.8415337 92.8047306,59.9984387 92.0579861,59.7026159 C88.2217695,58.2087106 83.8730812,59.1405525 80.9593136,62.0839895 C79.875802,63.1637428 79.0558473,64.4653632 78.5433757,65.914895 L76.4642048,65.914895 C75.6588922,65.914895 75,66.5804963 75,67.3940091 C75,68.2075218 75.6588922,68.8731232 76.4642048,68.8731232 L77.9284096,68.8731232 C77.8991255,69.4203954 77.8991255,69.9528764 77.9576937,70.5001487 L76.4642048,70.5001487 C75.6588922,70.5001487 75,71.16575 75,71.9792627 C75,72.7927755 75.6588922,73.4583768 76.4642048,73.4583768 L78.7044382,73.4583768 C79.2022678,74.7452061 79.9782964,75.9284973 80.9593136,76.9047126 C83.8584391,79.8481496 88.2071275,80.7947827 92.0579861,79.3008774 C92.8193726,79.0050546 93.1854238,78.1619596 92.9072249,77.3928203 Z" id="Path" fill="url(#linearGradient-11)"></path>
                            </g>
                        </g>
                    </g>
                </g>
            </g>
        </g>
    </g>
</svg>