<?xml version="1.0" encoding="UTF-8"?>
<svg width="81px" height="81px" viewBox="0 0 81 81" version="1.1" xmlns="http://www.w3.org/2000/svg" xmlns:xlink="http://www.w3.org/1999/xlink">
    <!-- Generator: Sketch 53.2 (72643) - https://sketchapp.com -->
    <title>support</title>
    <desc>Created with Sketch.</desc>
    <defs>
        <linearGradient x1="50.7795455%" y1="63.0254167%" x2="48.9613636%" y2="37.5120833%" id="linearGradient-1">
            <stop stop-color="#B51421" offset="0%"></stop>
            <stop stop-color="#EC5B66" offset="100%"></stop>
        </linearGradient>
        <linearGradient x1="50.7795455%" y1="102.101667%" x2="48.9613636%" y2="0.0483333333%" id="linearGradient-2">
            <stop stop-color="#B51421" offset="0%"></stop>
            <stop stop-color="#EC5B66" offset="100%"></stop>
        </linearGradient>
        <linearGradient x1="50.0866162%" y1="102.101667%" x2="49.884596%" y2="0.0483333333%" id="linearGradient-3">
            <stop stop-color="#B51421" offset="0%"></stop>
            <stop stop-color="#EC5B66" offset="100%"></stop>
        </linearGradient>
    </defs>
    <g id="Page-1" stroke="none" stroke-width="1" fill="none" fill-rule="evenodd">
        <g id="Landing/Photo/short-text" transform="translate(-1274.000000, -1077.000000)" fill-rule="nonzero">
            <g id="What-We-Do" transform="translate(191.000000, 1077.000000)">
                <g id="Block-3" transform="translate(972.000000, 0.000000)">
                    <g id="Group-5">
                        <g id="Item3">
                            <g id="support" transform="translate(111.000000, 0.000000)">
                                <path d="M35,25 C32.7946667,25 31,26.7946667 31,29 L33.6666667,29 C33.6666667,28.2653333 34.264,27.6666667 35,27.6666667 C35.736,27.6666667 36.3333333,28.2653333 36.3333333,29 L39,29 C39,26.7946667 37.2053333,25 35,25 Z" id="Path" fill="url(#linearGradient-1)"></path>
                                <path d="M46,25 C43.7946667,25 42,26.7946667 42,29 L44.6666667,29 C44.6666667,28.2653333 45.264,27.6666667 46,27.6666667 C46.736,27.6666667 47.3333333,28.2653333 47.3333333,29 L50,29 C50,26.7946667 48.2053333,25 46,25 Z" id="Path" fill="url(#linearGradient-1)"></path>
                                <path d="M40.5,62 C37.46675,62 35,64.46675 35,67.5 C35,70.53325 37.46675,73 40.5,73 C43.53325,73 46,70.53325 46,67.5 C46,64.46675 43.53325,62 40.5,62 Z M40.5,70.25 C38.983375,70.25 37.75,69.016625 37.75,67.5 C37.75,65.983375 38.983375,64.75 40.5,64.75 C42.016625,64.75 43.25,65.983375 43.25,67.5 C43.25,69.016625 42.016625,70.25 40.5,70.25 Z" id="Shape" fill="url(#linearGradient-2)"></path>
                                <path d="M72.9,78.3 L72.9,60.75 C72.9,49.58415 63.81585,40.5 52.65,40.5 L51.17985,40.5 C51.66045,40.07745 52.1127,39.62655 52.54065,39.15 L54,39.15 C57.72195,39.15 60.75,36.12195 60.75,32.4 L60.75,30.0213 C62.37675,28.9305 63.45,27.0756 63.45,24.975 C63.45,22.8663 62.36865,21.0087 60.7338,19.91925 C60.55425,8.9073 51.55515,0 40.5,0 C29.44485,0 20.44575,8.9073 20.2662,19.91925 C18.63135,21.0087 17.55,22.8663 17.55,24.975 C17.55,28.32435 20.27565,31.05 23.625,31.05 L24.54435,31.05 C25.17615,34.79085 27.08775,38.0943 29.8215,40.5 L28.35,40.5 C17.18415,40.5 8.1,49.58415 8.1,60.75 L8.1,78.3 L0,78.3 L0,81 L9.45,81 L16.2,81 L64.8,81 L71.55,81 L81,81 L81,78.3 L72.9,78.3 Z M58.05,32.4 C58.05,34.44795 56.5164,36.12735 54.54135,36.39465 C55.4769,34.7679 56.133,32.96565 56.45565,31.05 L57.375,31.05 C57.60585,31.05 57.8259,31.0068 58.05,30.98115 L58.05,32.4 Z M60.75,24.975 C60.75,26.8353 59.23665,28.35 57.375,28.35 L56.7,28.35 L56.7,21.6 L57.375,21.6 C59.23665,21.6 60.75,23.1147 60.75,24.975 Z M24.3,28.35 L23.625,28.35 C21.76335,28.35 20.25,26.8353 20.25,24.975 C20.25,23.1147 21.76335,21.6 23.625,21.6 L24.3,21.6 L24.3,28.35 Z M23.625,18.9 C23.41575,18.9 23.21865,18.9405 23.0148,18.9621 C23.679,9.88605 31.2579,2.7 40.5,2.7 C49.7421,2.7 57.321,9.88605 57.9852,18.9621 C57.78135,18.9405 57.58425,18.9 57.375,18.9 L56.45565,18.9 C55.16505,11.2509 48.5109,5.4 40.5,5.4 C32.4891,5.4 25.83495,11.2509 24.54435,18.9 L23.625,18.9 Z M53.99865,21.56625 C44.2557,21.22335 37.8,17.2395 37.8,13.5 C37.8,12.7548 37.19655,12.15 36.45,12.15 C35.70345,12.15 35.1,12.7548 35.1,13.5 C35.1,16.87365 31.6116,19.6695 27.0783,20.16495 C27.79785,13.39335 33.5421,8.1 40.5,8.1 C47.93175,8.1 53.97975,14.13855 53.99865,21.56625 Z M27,28.35 L27,22.8744 C31.21605,22.50855 34.79355,20.47545 36.5796,17.6283 C39.4038,21.3705 46.00395,24.00435 54,24.273 L54,28.35 C54,31.39155 52.9767,34.1901 51.27435,36.45 L40.5,36.45 L40.5,39.15 L48.5649,39.15 C47.79,39.7305 46.95435,40.23 46.06335,40.635 C42.52095,42.2442 38.4777,42.2442 34.93395,40.635 C30.26295,38.5101 27,33.8094 27,28.35 Z M36.32715,43.9857 C37.66095,44.3421 39.0555,44.55 40.5,44.55 C41.9445,44.55 43.33905,44.3421 44.67285,43.9857 L40.5,52.3314 L36.32715,43.9857 Z M38.3157,54 L35.9343,54 L30.5343,43.2 L32.9157,43.2 L38.3157,54 Z M48.0843,43.2 L50.4657,43.2 L45.0657,54 L42.6843,54 L48.0843,43.2 Z M14.85,60.75 L14.85,78.3 L10.8,78.3 L10.8,60.75 C10.8,51.34725 18.2385,43.67115 27.53595,43.24185 L32.9157,54 L21.6,54 C17.87805,54 14.85,57.02805 14.85,60.75 Z M63.45,78.3 L17.55,78.3 L17.55,60.75 C17.55,58.5171 19.3671,56.7 21.6,56.7 L35.1,56.7 L40.5,56.7 L45.9,56.7 L59.4,56.7 C61.6329,56.7 63.45,58.5171 63.45,60.75 L63.45,78.3 Z M70.2,78.3 L66.15,78.3 L66.15,60.75 C66.15,57.02805 63.12195,54 59.4,54 L48.0843,54 L53.46405,43.24185 C62.7615,43.67115 70.2,51.34725 70.2,60.75 L70.2,78.3 Z" id="Shape" fill="url(#linearGradient-2)"></path>
                                <rect id="Rectangle" fill="url(#linearGradient-3)" x="58" y="66" width="3" height="9"></rect>
                                <rect id="Rectangle" fill="url(#linearGradient-2)" x="58" y="61" width="3" height="3"></rect>
                                <rect id="Rectangle" fill="url(#linearGradient-2)" x="70" y="12" width="3" height="3"></rect>
                                <rect id="Rectangle" fill="url(#linearGradient-2)" x="70" y="17" width="3" height="3"></rect>
                                <rect id="Rectangle" fill="url(#linearGradient-2)" x="70" y="23" width="3" height="3"></rect>
                                <rect id="Rectangle" fill="url(#linearGradient-2)" x="8" y="28" width="3" height="3"></rect>
                                <rect id="Rectangle" fill="url(#linearGradient-2)" x="8" y="34" width="3" height="3"></rect>
                                <rect id="Rectangle" fill="url(#linearGradient-2)" x="8" y="39" width="3" height="3"></rect>
                            </g>
                        </g>
                    </g>
                </g>
            </g>
        </g>
    </g>
</svg>